<!-- Cleaning Icons Collection -->
<svg style="display: none;">
  <defs>
    <!-- Sparkles/Clean Icon -->
    <symbol id="icon-sparkles" viewBox="0 0 24 24">
      <path d="M9.813 1.5l.956 2.048L12.5 2.5l-1.731 1.048L9.813 5.5l-.956-2.048L7.125 2.5l1.732-1.048L9.813 1.5zM6.5 7l.956 2.048L9.188 8l-1.732 1.048L6.5 11l-.956-2.048L3.812 8l1.732-1.048L6.5 7zM17.5 8l.956 2.048L20.188 9l-1.732 1.048L17.5 12l-.956-2.048L14.812 9l1.732-1.048L17.5 8zM12 13l1.434 3.072L17 15l-3.566 2.072L12 20l-1.434-3.072L7 15l3.566-2.072L12 13z"/>
    </symbol>

    <!-- Refrigerator Icon -->
    <symbol id="icon-refrigerator" viewBox="0 0 24 24">
      <path d="M7 2C6.45 2 6 2.45 6 3v18c0 .55.45 1 1 1h10c.55 0 1-.45 1-1V3c0-.55-.45-1-1-1H7zm0 2h10v7H7V4zm0 9h10v7H7v-7zm2-7v2h1V6H9zm0 9v2h1v-2H9z"/>
    </symbol>

    <!-- Window Icon -->
    <symbol id="icon-window" viewBox="0 0 24 24">
      <path d="M3 3h18v18H3V3zm2 2v6h6V5H5zm8 0v6h6V5h-6zm-8 8v6h6v-6H5zm8 0v6h6v-6h-6z"/>
    </symbol>

    <!-- Bathroom/Bath Icon -->
    <symbol id="icon-bathroom" viewBox="0 0 24 24">
      <path d="M7 5c1.1 0 2-.9 2-2s-.9-2-2-2-2 .9-2 2 .9 2 2 2zM3 9h2v7c0 1.1.9 2 2 2h1v3h2v-3h4v3h2v-3h1c1.1 0 2-.9 2-2V9h2V7H3v2zm2 2h14v5H5v-5z"/>
    </symbol>

    <!-- Mirror Icon -->
    <symbol id="icon-mirror" viewBox="0 0 24 24">
      <path d="M12 2C8.13 2 5 5.13 5 9c0 3.87 3.13 7 7 7s7-3.13 7-7c0-3.87-3.13-7-7-7zm0 12c-2.76 0-5-2.24-5-5s2.24-5 5-5 5 2.24 5 5-2.24 5-5 5zM9 22h6v-2H9v2z"/>
    </symbol>

    <!-- Broom/Cleaning Icon -->
    <symbol id="icon-broom" viewBox="0 0 24 24">
      <path d="M19.36 2.72L20.78 4.14l-8.5 8.5c-.39.39-.9.59-1.41.59H9c-.55 0-1-.45-1-1v-1.87c0-.51.2-1.02.59-1.41l8.5-8.5 1.42 1.42L11.7 8.68c-.2.2-.2.51 0 .71l1.91 1.91c.2.2.51.2.71 0l6.86-6.86 1.42 1.42-2.83 2.83L22 11v6.5c0 .83-.67 1.5-1.5 1.5h-17C2.67 19 2 18.33 2 17.5V11h2.24l2.83-2.83z"/>
    </symbol>

    <!-- Eco/Leaf Icon -->
    <symbol id="icon-eco" viewBox="0 0 24 24">
      <path d="M17 8C8 10 5.9 16.17 3.82 21.34l1.89.66C7.19 17.22 9.04 12.27 17 10l-1-2z"/>
      <path d="M3.5 3l2.6 2.6C7.91 7.41 10.5 9 13.5 9s5.59-1.59 7.4-3.4l2.6-2.6v12l-2.6-2.6C18.09 16.59 15.5 18 12.5 18s-5.59-1.59-7.4-3.4L2.5 12V3z"/>
    </symbol>

    <!-- Gear/Settings Icon -->
    <symbol id="icon-gear" viewBox="0 0 24 24">
      <path d="M19.14 12.94c.04-.3.06-.61.06-.94 0-.32-.02-.64-.07-.94l2.03-1.58c.18-.14.23-.41.12-.61l-1.92-3.32c-.12-.22-.37-.29-.59-.22l-2.39.96c-.5-.38-1.03-.7-1.62-.94l-.36-2.54c-.04-.24-.24-.41-.48-.41h-3.84c-.24 0-.43.17-.47.41l-.36 2.54c-.59.24-1.13.57-1.62.94l-2.39-.96c-.22-.08-.47 0-.59.22L2.74 8.87c-.12.21-.08.47.12.61l2.03 1.58c-.05.3-.09.63-.09.94s.02.64.07.94l-2.03 1.58c-.18.14-.23.41-.12.61l1.92 3.32c.12.22.37.29.59.22l2.39-.96c.5.38 1.03.7 1.62.94l.36 2.54c.05.24.24.41.48.41h3.84c.24 0 .44-.17.47-.41l.36-2.54c.59-.24 1.13-.56 1.62-.94l2.39.96c.22.08.47 0 .59-.22l1.92-3.32c.12-.22.07-.47-.12-.61l-2.01-1.58zM12 15.6c-1.98 0-3.6-1.62-3.6-3.6s1.62-3.6 3.6-3.6 3.6 1.62 3.6 3.6-1.62 3.6-3.6 3.6z"/>
    </symbol>

    <!-- Dollar/Money Icon -->
    <symbol id="icon-dollar" viewBox="0 0 24 24">
      <path d="M11.8 10.9c-2.27-.59-3-1.2-3-2.15 0-1.09 1.01-1.85 2.7-1.85 1.78 0 2.44.85 2.5 2.1h2.21c-.07-1.72-1.12-3.3-3.21-3.81V3h-3v2.16c-1.94.42-3.5 1.68-3.5 3.61 0 2.31 1.91 3.46 4.7 4.13 2.5.6 3 1.48 3 2.41 0 .69-.49 1.79-2.7 1.79-2.06 0-2.87-.92-2.98-2.1h-2.2c.12 2.19 1.76 3.42 3.68 3.83V21h3v-2.15c1.95-.37 3.5-1.5 3.5-3.55 0-2.84-2.43-3.81-4.7-4.4z"/>
    </symbol>

    <!-- Star Icon -->
    <symbol id="icon-star" viewBox="0 0 24 24">
      <path d="M12 2l3.09 6.26L22 9.27l-5 4.87 1.18 6.88L12 17.77l-6.18 3.25L7 14.14 2 9.27l6.91-1.01L12 2z"/>
    </symbol>

    <!-- Shield/Security Icon -->
    <symbol id="icon-shield" viewBox="0 0 24 24">
      <path d="M12 1L3 5v6c0 5.55 3.84 10.74 9 12 5.16-1.26 9-6.45 9-12V5l-9-4z"/>
    </symbol>

    <!-- Clock/Time Icon -->
    <symbol id="icon-clock" viewBox="0 0 24 24">
      <path d="M12 2C6.48 2 2 6.48 2 12s4.48 10 10 10 10-4.48 10-10S17.52 2 12 2zm0 18c-4.41 0-8-3.59-8-8s3.59-8 8-8 8 3.59 8 8-3.59 8-8 8zm.5-13H11v6l5.25 3.15.75-1.23-4.5-2.67V7z"/>
    </symbol>

    <!-- Check/Success Icon -->
    <symbol id="icon-check" viewBox="0 0 24 24">
      <path d="M9 16.17L4.83 12l-1.42 1.41L9 19 21 7l-1.41-1.41z"/>
    </symbol>

    <!-- Calculator Icon -->
    <symbol id="icon-calculator" viewBox="0 0 24 24">
      <path d="M19 3H5c-1.1 0-2 .9-2 2v14c0 1.1.9 2 2 2h14c1.1 0 2-.9 2-2V5c0-1.1-.9-2-2-2zm-5 14h-4v-4h4v4zm0-6h-4V7h4v4zm6 6h-4v-4h4v4zm0-6h-4V7h4v4z"/>
    </symbol>

    <!-- Images/Portfolio Icon -->
    <symbol id="icon-images" viewBox="0 0 24 24">
      <path d="M22 16V4c0-1.1-.9-2-2-2H8c-1.1 0-2 .9-2 2v12c0 1.1.9 2 2 2h12c1.1 0 2-.9 2-2zm-11.5-6.5L9 11.5l1.25 1.5L13 10l3 4H8l2.5-3.5zM2 6v14c0 1.1.9 2 2 2h14v-2H4V6H2z"/>
    </symbol>

    <!-- Home Icon -->
    <symbol id="icon-home" viewBox="0 0 24 24">
      <path d="M10 20v-6h4v6h5v-8h3L12 3 2 12h3v8z"/>
    </symbol>

    <!-- Contact/Phone Icon -->
    <symbol id="icon-contact" viewBox="0 0 24 24">
      <path d="M6.62 10.79c1.44 2.83 3.76 5.14 6.59 6.59l2.2-2.2c.27-.27.67-.36 1.02-.24 1.12.37 2.33.57 3.57.57.55 0 1 .45 1 1V20c0 .55-.45 1-1 1-9.39 0-17-7.61-17-17 0-.55.45-1 1-1h3.5c.55 0 1 .45 1 1 0 1.25.2 2.45.57 3.57.11.35.03.74-.25 1.02l-2.2 2.2z"/>
    </symbol>

    <!-- Package/Box Icon -->
    <symbol id="icon-package" viewBox="0 0 24 24">
      <path d="M12.5 2.5l8 4v11l-8 4.5-8-4.5v-11l8-4zm0 2L7 7.75v8.5l5.5 3.1 5.5-3.1v-8.5L12.5 4.5z"/>
    </symbol>
  </defs>
</svg>